<?xml version="1.0" standalone="no"?>
<!DOCTYPE svg PUBLIC "-//W3C//DTD SVG 20010904//EN"
 "http://www.w3.org/TR/2001/REC-SVG-20010904/DTD/svg10.dtd">
<svg version="1.0" xmlns="http://www.w3.org/2000/svg"
 width="500.000000pt" height="500.000000pt" viewBox="0 0 500.000000 500.000000"
 preserveAspectRatio="xMidYMid meet">
<metadata>
Created by potrace 1.16, written by Peter Selinger 2001-2019
</metadata>
<g transform="translate(0.000000,500.000000) scale(0.100000,-0.100000)"
fill="#000000" stroke="none">
<path d="M2425 3563 c-121 -62 -201 -133 -250 -223 -4 -8 12 3 36 26 56 52
104 81 191 113 67 25 71 28 89 74 10 26 15 47 11 47 -4 -1 -38 -17 -77 -37z"/>
<path d="M2880 3540 c-258 -39 -430 -88 -569 -160 -88 -46 -180 -129 -212
-193 l-22 -42 44 43 c126 124 347 204 699 252 85 12 164 23 175 26 13 2 25 18
36 49 l17 45 -27 -1 c-14 -1 -78 -9 -141 -19z"/>
<path d="M2875 2849 c-84 -85 -240 -157 -440 -204 -87 -21 -323 -59 -410 -67
-25 -3 -34 -11 -52 -48 -12 -25 -20 -46 -19 -47 5 -5 239 29 351 52 312 63
513 169 593 313 13 23 22 42 20 41 -2 0 -21 -18 -43 -40z"/>
<path d="M2799 2684 c-37 -41 -127 -95 -197 -120 -74 -26 -74 -25 -95 -81
l-17 -42 25 9 c100 38 225 126 271 192 53 74 58 90 13 42z"/>
<path d="M1694 2210 c-84 -61 -119 -145 -89 -216 45 -109 142 -132 224 -52 37
37 35 45 -6 22 -37 -22 -71 -14 -111 27 -50 51 -62 138 -24 182 21 24 31 22
75 -20 l38 -38 37 21 c20 12 38 27 40 34 3 8 0 10 -7 6 -7 -4 -25 8 -43 28
-41 46 -78 48 -134 6z"/>
<path d="M1965 2119 c-63 -52 -65 -55 -65 -111 0 -50 31 -101 69 -111 26 -6
137 94 146 132 10 45 -18 99 -59 116 -20 8 -37 15 -38 15 -2 0 -26 -18 -53
-41z"/>
<path d="M2317 2149 c-10 -6 -31 -29 -47 -51 -24 -33 -30 -37 -30 -20 0 27
-20 72 -32 72 -5 0 -27 -15 -50 -32 -38 -32 -39 -33 -16 -38 21 -5 23 -12 28
-80 8 -110 20 -121 78 -71 31 26 32 29 13 34 -26 6 -27 38 -4 78 33 56 53 33
53 -61 0 -85 30 -100 84 -41 16 17 16 21 4 21 -12 0 -17 19 -23 88 -9 106 -19
124 -58 101z"/>
<path d="M2590 2127 c-36 -26 -41 -32 -25 -35 11 -2 26 -11 33 -20 14 -18 16
-98 3 -106 -13 -9 -27 13 -63 99 -21 49 -40 81 -50 83 -9 2 -34 -13 -55 -32
-33 -31 -35 -35 -17 -36 28 0 46 -22 79 -97 15 -34 35 -69 44 -77 15 -14 22
-11 69 36 74 72 92 158 43 202 -16 15 -21 13 -61 -17z"/>
<path d="M2785 2141 c-38 -23 -71 -60 -79 -88 -14 -44 24 -125 68 -150 16 -9
28 -4 68 25 26 20 48 39 48 42 0 3 -19 5 -42 5 -22 0 -42 5 -44 10 -5 16 103
97 123 93 15 -3 19 -17 24 -73 6 -74 15 -105 31 -105 5 0 25 12 45 27 33 25
34 27 14 35 -26 9 -27 34 -1 76 30 49 44 36 50 -44 7 -103 20 -114 75 -65 29
25 31 30 15 34 -15 4 -18 18 -21 85 -5 99 -22 126 -62 99 -14 -9 -35 -33 -48
-54 l-24 -38 -5 35 c-12 69 -26 75 -78 29 -35 -31 -36 -31 -51 -13 -16 20 -61
54 -71 54 -3 0 -18 -8 -35 -19z"/>
<path d="M3295 2141 c-45 -27 -85 -79 -85 -110 0 -35 39 -111 66 -128 18 -11
26 -9 72 25 28 20 52 39 52 42 0 3 -19 5 -42 5 -22 0 -43 5 -45 10 -2 6 19 28
47 50 27 22 50 44 50 48 0 12 -65 77 -76 77 -5 0 -23 -8 -39 -19z"/>
</g>
</svg>
